<svg width="24" height="25" viewBox="0 0 24 25" fill="none" xmlns="http://www.w3.org/2000/svg">
<path id="Vector" fill-rule="evenodd" clip-rule="evenodd" d="M3.75 0C2.75544 0 1.80161 0.395088 1.09835 1.09835C0.395088 1.80161 0 2.75544 0 3.75V21.25C0 22.2446 0.395088 23.1984 1.09835 23.9017C1.80161 24.6049 2.75544 25 3.75 25H11.25C12.2446 25 13.1984 24.6049 13.9017 23.9017C14.6049 23.1984 15 22.2446 15 21.25V3.75C15 2.75544 14.6049 1.80161 13.9017 1.09835C13.1984 0.395088 12.2446 0 11.25 0H3.75ZM16.6162 6.61625C16.8507 6.38191 17.1685 6.25027 17.5 6.25027C17.8315 6.25027 18.1493 6.38191 18.3838 6.61625L23.3838 11.6163C23.6181 11.8507 23.7497 12.1685 23.7497 12.5C23.7497 12.8315 23.6181 13.1493 23.3838 13.3837L18.3838 18.3838C18.148 18.6114 17.8322 18.7374 17.5045 18.7346C17.1768 18.7317 16.8632 18.6003 16.6315 18.3685C16.3997 18.1368 16.2683 17.8232 16.2654 17.4955C16.2626 17.1678 16.3886 16.852 16.6162 16.6163L19.4825 13.75H8.75C8.41848 13.75 8.10054 13.6183 7.86612 13.3839C7.6317 13.1495 7.5 12.8315 7.5 12.5C7.5 12.1685 7.6317 11.8505 7.86612 11.6161C8.10054 11.3817 8.41848 11.25 8.75 11.25H19.4825L16.6162 8.38375C16.3819 8.14934 16.2503 7.83146 16.2503 7.5C16.2503 7.16854 16.3819 6.85066 16.6162 6.61625Z" fill="black"/>
</svg>
