<svg width="138" height="66" viewBox="0 0 138 66" fill="none" xmlns="http://www.w3.org/2000/svg">
<path d="M9.53333 50.6053C11.6262 50.6053 13.3228 52.3019 13.3228 54.3947H9.12031V60.8868C9.12031 63.6275 6.89851 65.8493 4.15779 65.8493V54.3947H3.78947C1.6966 54.3947 0 52.6981 0 50.6053H9.53333Z" fill="#12140F"/>
<path d="M13.2283 59.7775C13.2283 58.5 13.4518 57.3947 13.8989 56.4617C14.3609 55.5144 14.9868 54.7967 15.7766 54.3086C16.5664 53.8062 17.4531 53.555 18.4367 53.555C19.2563 53.555 19.9642 53.7201 20.5603 54.0502C21.1564 54.366 21.6109 54.8038 21.9239 55.3636V53.7057C24.6522 53.7057 26.864 55.9175 26.864 58.6459V65.8493H23.5818C22.6661 65.8493 21.9239 65.107 21.9239 64.1914C21.6109 64.7512 21.1564 65.1962 20.5603 65.5263C19.9642 65.8421 19.2563 66 18.4367 66C17.4531 66 16.5664 65.756 15.7766 65.2679C14.9868 64.7656 14.3609 64.0478 13.8989 63.1148C13.4518 62.1675 13.2283 61.055 13.2283 59.7775ZM21.9239 59.7775C21.9239 59.1316 21.7525 58.6292 21.4097 58.2703C21.067 57.9115 20.6273 57.7321 20.0909 57.7321C19.5544 57.7321 19.1147 57.9115 18.772 58.2703C18.4292 58.6292 18.2579 59.1316 18.2579 59.7775C18.2579 60.4234 18.4292 60.9258 18.772 61.2847C19.1147 61.6435 19.5544 61.823 20.0909 61.823C20.6273 61.823 21.067 61.6435 21.4097 61.2847C21.7525 60.9258 21.9239 60.4234 21.9239 59.7775Z" fill="#12140F"/>
<path d="M37.6961 53.6196C39.1417 53.6196 40.2668 54.0861 41.0715 55.0191C41.8912 55.9522 42.301 57.2153 42.301 58.8086V65.8493C39.5726 65.8493 37.3608 63.6375 37.3608 60.9091V59.4115C37.3608 58.8373 37.1969 58.3852 36.8691 58.055C36.5561 57.7105 36.1314 57.5383 35.5949 57.5383C35.0435 57.5383 34.6113 57.7105 34.2984 58.055C33.9854 58.3852 33.829 58.8373 33.829 59.4115V60.8868C33.829 63.6275 31.6072 65.8493 28.8664 65.8493V58.6683C28.8664 55.9275 31.0882 53.7057 33.829 53.7057V55.5574C34.2164 54.9833 34.7305 54.5167 35.3714 54.1579C36.0271 53.799 36.802 53.6196 37.6961 53.6196Z" fill="#12140F"/>
<path d="M46.5687 52.7368C45.7044 52.7368 45.0114 52.5144 44.4898 52.0694C43.9683 51.6244 43.7075 51.0646 43.7075 50.39C43.7075 49.701 43.9683 49.134 44.4898 48.689C45.0114 48.2297 45.7044 48 46.5687 48C47.4182 48 48.1037 48.2297 48.6253 48.689C49.1469 49.134 49.4077 49.701 49.4077 50.39C49.4077 51.0646 49.1469 51.6244 48.6253 52.0694C48.1037 52.5144 47.4182 52.7368 46.5687 52.7368ZM49.0276 53.7057V60.8868C49.0276 63.6275 46.8059 65.8493 44.0651 65.8493V58.6683C44.0651 55.9275 46.2869 53.7057 49.0276 53.7057Z" fill="#12140F"/>
<path d="M75.0569 50.6053V60.9091C75.0569 63.6375 72.8451 65.8493 70.1167 65.8493V58.2488L67.6801 65.8493H63.4329L60.9964 58.2488V65.8493C58.2557 65.8493 56.0339 63.6275 56.0339 60.8868V50.6053C59.6948 50.6053 62.9756 52.8659 64.2792 56.2869L65.6012 59.756L66.8903 56.2843C68.1579 52.8704 71.4153 50.6053 75.0569 50.6053Z" fill="#12140F"/>
<path d="M76.2438 59.7775C76.2438 58.5 76.4673 57.3947 76.9144 56.4617C77.3764 55.5144 78.0023 54.7967 78.7921 54.3086C79.5819 53.8062 80.4686 53.555 81.4522 53.555C82.2718 53.555 82.9797 53.7201 83.5758 54.0502C84.1719 54.366 84.6264 54.8038 84.9394 55.3636C84.9394 54.448 85.6816 53.7057 86.5973 53.7057H89.8795V60.9091C89.8795 63.6375 87.6678 65.8493 84.9394 65.8493V64.1914C84.6264 64.7512 84.1719 65.1962 83.5758 65.5263C82.9797 65.8421 82.2718 66 81.4522 66C80.4686 66 79.5819 65.756 78.7921 65.2679C78.0023 64.7656 77.3764 64.0478 76.9144 63.1148C76.4673 62.1675 76.2438 61.055 76.2438 59.7775ZM84.9394 59.7775C84.9394 59.1316 84.768 58.6292 84.4252 58.2703C84.0825 57.9115 83.6429 57.7321 83.1064 57.7321C82.5699 57.7321 82.1303 57.9115 81.7875 58.2703C81.4448 58.6292 81.2734 59.1316 81.2734 59.7775C81.2734 60.4234 81.4448 60.9258 81.7875 61.2847C82.1303 61.6435 82.5699 61.823 83.1064 61.823C83.6429 61.823 84.0825 61.6435 84.4252 61.2847C84.768 60.9258 84.9394 60.4234 84.9394 59.7775Z" fill="#12140F"/>
<path d="M97.0152 66C95.823 66 94.7649 65.8134 93.841 65.4402C92.9319 65.067 92.2092 64.5502 91.6727 63.89C91.1362 63.2297 90.8307 62.4833 90.7562 61.6507H94.5657C95.1149 61.6507 95.5328 62.1386 95.987 62.4474C96.2552 62.6196 96.5905 62.7057 96.9929 62.7057C97.2462 62.7057 97.4474 62.6555 97.5964 62.555C97.7454 62.4402 97.82 62.3038 97.82 62.1459C97.82 61.8732 97.6635 61.6794 97.3505 61.5646C97.0376 61.4498 96.5085 61.3206 95.7634 61.177C94.8544 61.0048 94.1018 60.8182 93.5057 60.6172C92.9245 60.4163 92.4104 60.0718 91.9633 59.5837C91.5311 59.0957 91.315 58.4211 91.315 57.5598C91.315 56.8134 91.5162 56.1388 91.9186 55.5359C92.3358 54.9187 92.9468 54.4378 93.7516 54.0933C94.5563 53.7344 95.5324 53.555 96.6799 53.555C98.3788 53.555 99.7051 53.9569 100.659 54.7608C101.628 55.5646 102.209 56.6124 102.402 57.9043H98.9072C98.376 57.9043 97.9599 57.4618 97.5294 57.1507C97.2909 56.9641 96.9705 56.8708 96.5682 56.8708C96.3148 56.8708 96.1211 56.9211 95.987 57.0215C95.8528 57.1077 95.7858 57.244 95.7858 57.4306C95.7858 57.6746 95.9422 57.8612 96.2552 57.9904C96.5681 58.1053 97.0674 58.2273 97.7529 58.3565C98.6619 58.5287 99.4294 58.7225 100.055 58.9378C100.681 59.1531 101.225 59.5263 101.687 60.0574C102.149 60.5742 102.38 61.2919 102.38 62.2105C102.38 62.9282 102.164 63.5742 101.732 64.1483C101.3 64.7225 100.674 65.1746 99.8541 65.5048C99.0494 65.8349 98.1031 66 97.0152 66Z" fill="#12140F"/>
<path d="M112.603 61.7799V65.8493H110.725C107.268 65.8493 105.539 64.1914 105.539 60.8756V57.689H103.974V55.2705C103.974 54.4063 104.675 53.7057 105.539 53.7057V50.7775H107.574C109.191 50.7775 110.502 52.0885 110.502 53.7057H112.558V55.6325C112.558 56.7683 111.638 57.689 110.502 57.689V60.9617C110.502 61.2488 110.569 61.4569 110.703 61.5861C110.852 61.7153 111.09 61.7799 111.418 61.7799H112.603Z" fill="#12140F"/>
<path d="M127.253 59.6699C127.253 60 127.231 60.3158 127.186 60.6172H119.206C119.281 61.6651 119.735 62.189 120.57 62.189C121.106 62.189 121.494 61.9522 121.732 61.4785H126.985C126.806 62.3397 126.426 63.1148 125.845 63.8038C125.279 64.4785 124.556 65.0167 123.677 65.4187C122.812 65.8062 121.859 66 120.815 66C119.564 66 118.446 65.7488 117.462 65.2464C116.494 64.744 115.734 64.0263 115.182 63.0933C114.646 62.1459 114.378 61.0407 114.378 59.7775C114.378 58.5144 114.646 57.4163 115.182 56.4833C115.734 55.5359 116.494 54.811 117.462 54.3086C118.446 53.8062 119.564 53.555 120.815 53.555C122.067 53.555 123.177 53.8062 124.146 54.3086C125.13 54.7967 125.89 55.5 126.426 56.4187C126.978 57.3373 127.253 58.4211 127.253 59.6699ZM122.224 58.5287C122.224 58.1268 122.09 57.8254 121.821 57.6244C121.553 57.4091 121.218 57.3014 120.815 57.3014C119.936 57.3014 119.422 57.7105 119.273 58.5287H122.224Z" fill="#12140F"/>
<path d="M133.865 55.945C134.371 55.2416 134.99 54.6818 135.72 54.2655C136.45 53.8349 137.21 53.6196 138 53.6196V57.3142C138 58.092 137.369 58.7225 136.592 58.7225C135.653 58.7225 134.96 58.8804 134.513 59.1962C134.081 59.512 133.865 60.0718 133.865 60.8756C133.865 63.6163 131.643 65.8493 128.902 65.8493V58.6683C128.902 55.9276 131.124 53.7057 133.865 53.7057V55.945Z" fill="#12140F"/>
<path d="M53.0109 14.3818C50.7509 14.3979 49.4368 15.1338 49.1183 15.3233C48.4387 15.7274 47.457 16.8115 47.457 16.8115V23.1213C48.0015 22.552 49.3141 20.7193 52.1042 20.7193C55.7676 20.7193 60.6166 24.1731 64.2657 26.8289V19.5942C59.2417 15.3233 55.5721 14.3637 53.0109 14.3818ZM52.1042 21.8889C49.2485 21.8173 48.3161 23.607 47.457 24.3996V32.0769C47.457 32.0769 49.9825 29.5523 51.7338 29.5523C53.4851 29.5523 59.8309 32.6882 64.2658 36.2361L64.2657 28.1048C60.566 25.878 56.6933 22.0038 52.1042 21.8889ZM75.5206 14.3818C77.7805 14.3979 79.0947 15.1338 79.4132 15.3233C80.0928 15.7274 81.0744 16.8115 81.0744 16.8115V23.1213C80.53 22.552 79.2174 20.7193 76.4273 20.7193C72.7639 20.7193 67.9149 24.1731 64.2657 26.8289V19.5942C69.2897 15.3233 72.9594 14.3637 75.5206 14.3818ZM76.4273 21.8889C79.283 21.8174 80.2154 23.607 81.0744 24.3996V32.0769C81.0744 32.0769 78.5489 29.5523 76.7977 29.5523C75.0464 29.5523 68.7007 32.6882 64.2658 36.2361V33.5278L64.2657 28.1048C67.9654 25.878 71.8382 22.0038 76.4273 21.8889Z" fill="#239A6E"/>
<path d="M42.1918 28.8635C41.2313 25.279 43.8991 17.8725 49.7224 15.0183C49.7224 15.0183 47.9698 17.5151 48.8682 20.8678L52.1035 32.9747C53.5525 38.3825 46.4037 44 46.4037 44L42.1918 28.8635ZM86.3398 28.8635C87.3003 25.279 84.6325 17.8725 78.8092 15.0183C78.8092 15.0183 80.5618 17.5151 79.6635 20.8678L76.4281 32.9747C74.9791 38.3825 82.1279 44 82.1279 44L86.3398 28.8635Z" fill="#1D6C4F"/>
<path d="M55.8354 6.44864C54.662 6.45567 53.7983 6.70221 53.555 7.26472C52.9061 8.76473 55.701 11.5791 59.2887 13.131C59.9012 13.396 61.2136 13.9575 61.7256 14.1003C60.9475 13.3773 60.4476 12.0174 60.4476 9.62048C60.4476 8.91468 60.494 8.15672 60.5749 7.38627C58.7589 6.80261 57.2894 6.43996 55.8354 6.44864ZM72.6965 6.44864C73.8699 6.45567 74.7336 6.70221 74.977 7.26472C75.6258 8.76473 72.831 11.5791 69.2433 13.131C68.6308 13.396 67.3536 13.9575 66.8416 14.1003C67.6197 13.3773 68.1196 12.0174 68.1196 9.62048C68.1196 8.91468 68.0732 8.15672 67.9923 7.38627C69.8083 6.80261 71.2425 6.43996 72.6965 6.44864Z" fill="#E19D2F"/>
<path d="M67.2251 9.48787C67.2251 13.3968 65.9002 14.3733 64.2659 14.3733C62.6315 14.3733 61.3066 13.3968 61.3066 9.48787C61.3066 5.57893 62.6315 0 64.2659 0C65.9002 0 67.2251 5.57893 67.2251 9.48787Z" fill="#E19D2F"/>
</svg>
