<svg width="21" height="25" viewBox="0 0 21 25" fill="none" xmlns="http://www.w3.org/2000/svg">
<path id="Vector" d="M0 3.125V21.875C0 22.7038 0.32924 23.4987 0.915291 24.0847C1.50134 24.6708 2.2962 25 3.125 25H19.6875C19.9361 25 20.1746 24.9012 20.3504 24.7254C20.5262 24.5496 20.625 24.3111 20.625 24.0625C20.625 23.8139 20.5262 23.5754 20.3504 23.3996C20.1746 23.2238 19.9361 23.125 19.6875 23.125H3.125C2.79348 23.125 2.47554 22.9933 2.24112 22.7589C2.0067 22.5245 1.875 22.2065 1.875 21.875H19.6875C19.9361 21.875 20.1746 21.7762 20.3504 21.6004C20.5262 21.4246 20.625 21.1861 20.625 20.9375V3.125C20.625 2.71462 20.5442 2.30826 20.3871 1.92911C20.2301 1.54997 19.9999 1.20547 19.7097 0.915291C19.4195 0.625108 19.075 0.394922 18.6959 0.237876C18.3167 0.0808305 17.9104 0 17.5 0H3.125C2.2962 0 1.50134 0.32924 0.915291 0.915291C0.32924 1.50134 0 2.2962 0 3.125ZM9.375 12.1875V5.9375C9.375 5.68886 9.47377 5.4504 9.64959 5.27459C9.8254 5.09877 10.0639 5 10.3125 5C10.5611 5 10.7996 5.09877 10.9754 5.27459C11.1512 5.4504 11.25 5.68886 11.25 5.9375V12.1875C11.25 12.4361 11.1512 12.6746 10.9754 12.8504C10.7996 13.0262 10.5611 13.125 10.3125 13.125C10.0639 13.125 9.8254 13.0262 9.64959 12.8504C9.47377 12.6746 9.375 12.4361 9.375 12.1875ZM11.5625 15.625C11.5625 15.9565 11.4308 16.2745 11.1964 16.5089C10.962 16.7433 10.644 16.875 10.3125 16.875C9.98098 16.875 9.66304 16.7433 9.42862 16.5089C9.1942 16.2745 9.0625 15.9565 9.0625 15.625C9.0625 15.2935 9.1942 14.9755 9.42862 14.7411C9.66304 14.5067 9.98098 14.375 10.3125 14.375C10.644 14.375 10.962 14.5067 11.1964 14.7411C11.4308 14.9755 11.5625 15.2935 11.5625 15.625Z" fill="black"/>
</svg>
