<svg width="25" height="26" viewBox="0 0 25 26" fill="none" xmlns="http://www.w3.org/2000/svg">
<path id="Vector" d="M22.1418 12.8557C22.1418 12.56 22.1289 12.2772 22.1032 11.9815L24.4944 10.1689C25.0086 9.7832 25.15 9.06328 24.8286 8.49763L22.4246 4.34523C22.2705 4.07293 22.0211 3.86718 21.7245 3.76752C21.4279 3.66786 21.1049 3.68131 20.8176 3.80529L18.0537 4.97516C17.578 4.64091 17.0766 4.34523 16.5496 4.10097L16.1767 1.1313C16.0996 0.488517 15.5468 0 14.904 0H10.1088C9.45319 0 8.9004 0.488517 8.82327 1.1313L8.45045 4.10097C7.92336 4.34523 7.42199 4.64091 6.94633 4.97516L4.18235 3.80529C3.59099 3.54818 2.89678 3.77958 2.57538 4.34523L0.171364 8.51049C-0.150029 9.07614 -0.00861599 9.7832 0.505613 10.1817L2.89678 11.9944C2.84317 12.5717 2.84317 13.1526 2.89678 13.7299L0.505613 15.5426C-0.00861599 15.9282 -0.150029 16.6482 0.171364 17.2138L2.57538 21.3662C2.89678 21.9319 3.59099 22.1633 4.18235 21.9061L6.94633 20.7363C7.42199 21.0705 7.92336 21.3662 8.45045 21.6105L8.82327 24.5801C8.9004 25.2229 9.45319 25.7114 10.096 25.7114H14.8912C15.5339 25.7114 16.0867 25.2229 16.1639 24.5801L16.5367 21.6105C17.0638 21.3662 17.5652 21.0705 18.0408 20.7363L20.8048 21.9061C21.3962 22.1633 22.0904 21.9319 22.4118 21.3662L24.8158 17.2138C25.1372 16.6482 24.9958 15.9411 24.4815 15.5426L22.0904 13.7299C22.1289 13.4342 22.1418 13.1514 22.1418 12.8557ZM12.5514 17.3552C10.0703 17.3552 8.05192 15.3369 8.05192 12.8557C8.05192 10.3746 10.0703 8.35622 12.5514 8.35622C15.0326 8.35622 17.0509 10.3746 17.0509 12.8557C17.0509 15.3369 15.0326 17.3552 12.5514 17.3552Z" fill="black"/>
</svg>
