<?xml version="1.0" encoding="utf-8"?>
<!-- Uploaded to: SVG Repo, www.svgrepo.com, Generator: SVG Repo Mixer Tools -->
<svg fill="#black" version="1.1" id="Layer_1" xmlns="http://www.w3.org/2000/svg" xmlns:xlink="http://www.w3.org/1999/xlink" 
	 width="800px" height="800px" viewBox="0 0 256 160" enable-background="new 0 0 256 160" xml:space="preserve">
<path d="M252,113.004h-5v-22c0-7.4-5.52-13-13-13h-24c-0.5,0-1.1-0.27-1.44-0.61l-37.4-36.4c-1.68-1.68-3.72-2.91-6.16-2.99h-27v92
	h40c0.92,0,1.83-1.16,2-2c2.52-14.46,14.83-25.43,30.04-25.43c15.22,0,27.82,11.01,30.34,25.47c0.17,0.92,1.7,1.96,2.62,1.96h2
	c4.79,0,9-4.32,9-9.02v-6.22C254,113.834,253.01,113.004,252,113.004z M191,78.004h-41c-1.01,0-2-0.984-2-1.984l-0.04-25.866
	c0-1.01,1.03-2.15,2.04-2.15h13c0.5,0,1.52,0.55,1.94,0.89L192,75.004C193.01,76.264,192.6,78.004,191,78.004z M2,2.314v41.05h41
	v-17.92l36.25,29.94L43,85.324v-17.96H2v54.08c0,4.48,3.52,8.56,8,8.56h22c0.92,0,1.83-1.16,2-2c2.52-14.46,15.33-24.45,30.54-24.45
	c15.21,0,27.82,10.03,30.34,24.49c0.17,0.92,1.2,1.96,2.12,1.96h33v-128L2,2.314z M210.04,110.474c-12.77,0-23.11,10.34-23.11,23.11
	c0,12.78,10.34,23.12,23.11,23.12c12.78,0,23.12-10.34,23.12-23.12C233.16,120.814,222.82,110.474,210.04,110.474z M210.04,142.444
	c-4.85,0-8.85-4-8.85-8.86c0-4.85,4-8.85,8.85-8.85c4.86,0,8.86,4,8.86,8.85C218.9,138.444,214.9,142.444,210.04,142.444z
	 M64.54,111.464c-12.78,0-23.11,10.33-23.11,23.11c0,12.77,10.33,23.11,23.11,23.11c12.77,0,23.11-10.34,23.11-23.11
	C87.65,121.794,77.31,111.464,64.54,111.464z M64.54,143.424c-4.85,0-8.85-4-8.85-8.85c0-4.85,4-8.85,8.85-8.85
	c4.85,0,8.85,4,8.85,8.85C73.39,139.424,69.39,143.424,64.54,143.424z"/>
</svg>