<svg width="1124" height="1133" viewBox="0 0 1124 1133" fill="none" xmlns="http://www.w3.org/2000/svg">
<rect width="1124" height="1133" rx="126" fill="#81C09D"/>
<path d="M348.77 397.686C305.922 397.99 281.006 411.944 274.966 415.536C262.08 423.199 243.468 443.753 243.468 443.753V563.389C253.791 552.595 278.678 517.846 331.58 517.846C401.039 517.846 492.978 583.331 562.166 633.686V496.513C466.91 415.536 397.332 397.342 348.77 397.686ZM331.58 540.022C277.434 538.665 259.757 572.598 243.468 587.625V733.19C243.468 733.19 291.353 685.322 324.557 685.322C357.762 685.322 478.08 744.779 562.167 812.048L562.165 657.877C492.017 615.657 418.59 542.201 331.58 540.022ZM775.561 397.686C818.41 397.99 843.326 411.944 849.366 415.536C862.251 423.199 880.863 443.753 880.863 443.753V563.389C870.541 552.595 845.653 517.846 792.752 517.846C723.293 517.846 631.354 583.331 562.166 633.686V496.513C657.422 415.536 727 397.342 775.561 397.686ZM792.752 540.022C846.897 538.665 864.575 572.598 880.863 587.625V733.19C880.863 733.19 832.979 685.322 799.774 685.322C766.57 685.322 646.253 744.779 562.167 812.048V760.698L562.165 657.877C632.312 615.657 705.742 542.201 792.752 540.022Z" fill="#239A6E"/>
<path d="M143.637 672.263C125.426 604.299 176.008 463.87 286.418 409.754C286.418 409.754 253.189 457.094 270.222 520.662L331.565 750.212C359.039 852.746 223.495 959.254 223.495 959.254L143.637 672.263ZM980.695 672.263C998.906 604.299 948.323 463.87 837.913 409.754C837.913 409.754 871.142 457.094 854.109 520.662L792.766 750.212C765.292 852.746 900.836 959.254 900.836 959.254L980.695 672.263Z" fill="#1D6C4F"/>
<path d="M402.32 247.266C380.072 247.4 363.696 252.074 359.082 262.739C346.78 291.18 399.771 344.542 467.794 373.967C479.408 378.99 504.293 389.637 514 392.344C499.247 378.635 489.769 352.851 489.769 307.405C489.769 294.023 490.647 279.652 492.182 265.044C457.751 253.978 429.888 247.102 402.32 247.266ZM722.011 247.266C744.259 247.4 760.635 252.074 765.249 262.739C777.552 291.18 724.56 344.542 656.537 373.967C644.923 378.99 620.707 389.637 611 392.344C625.753 378.635 635.231 352.851 635.231 307.405C635.231 294.023 634.353 279.652 632.818 265.044C667.249 253.978 694.443 247.102 722.011 247.266Z" fill="#73F0E4"/>
<path d="M618.274 304.893C618.274 379.007 593.153 397.521 562.166 397.521C531.178 397.521 506.058 379.007 506.058 304.893C506.058 230.778 531.178 125 562.166 125C593.153 125 618.274 230.778 618.274 304.893Z" fill="#73F0E4"/>
</svg>
