<svg width="386" height="382" viewBox="0 0 386 382" fill="none" xmlns="http://www.w3.org/2000/svg">
<path d="M95.4275 124.643C75.8416 124.781 64.4527 131.16 61.6918 132.802C55.802 136.305 47.2944 145.7 47.2944 145.7V200.385C52.0129 195.451 63.3888 179.568 87.5699 179.568C119.319 179.568 161.344 209.5 192.97 232.518V169.816C149.429 132.802 117.625 124.485 95.4275 124.643ZM87.5699 189.704C62.8202 189.084 54.7397 204.594 47.2944 211.463V278C47.2944 278 69.1823 256.12 84.3599 256.12C99.5376 256.12 154.535 283.298 192.97 314.046L192.969 243.575C160.905 224.276 127.342 190.7 87.5699 189.704ZM290.512 124.643C310.098 124.781 321.487 131.16 324.248 132.802C330.138 136.305 338.645 145.7 338.645 145.7V200.385C333.927 195.451 322.551 179.568 298.37 179.568C266.62 179.568 224.596 209.5 192.97 232.518V169.816C236.511 132.802 268.315 124.485 290.512 124.643ZM298.37 189.704C323.12 189.084 331.2 204.594 338.645 211.463V278C338.645 278 316.758 256.12 301.58 256.12C286.402 256.12 231.406 283.298 192.97 314.046V290.574L192.969 243.575C225.034 224.276 258.598 190.7 298.37 189.704Z" fill="#239A6E"/>
<path d="M1.66229 250.15C-6.6618 219.085 16.459 154.895 66.9273 130.159C66.9273 130.159 51.7383 151.797 59.5241 180.854L87.5637 285.781C100.122 332.649 38.1652 381.333 38.1652 381.333L1.66229 250.15ZM384.278 250.15C392.603 219.085 369.482 154.895 319.013 130.159C319.013 130.159 334.202 151.797 326.417 180.854L298.377 285.781C285.819 332.649 347.776 381.333 347.776 381.333L384.278 250.15Z" fill="#1D6C4F"/>
<path d="M119.907 55.8882C109.737 55.9491 102.252 58.0858 100.143 62.9609C94.5197 75.961 118.742 100.352 149.835 113.802C155.144 116.099 166.518 120.965 170.955 122.203C164.212 115.936 159.88 104.151 159.88 83.3775C159.88 77.2605 160.281 70.6915 160.983 64.0143C145.244 58.9559 132.508 55.8129 119.907 55.8882ZM266.036 55.8882C276.206 55.9491 283.692 58.0858 285.8 62.9609C291.424 75.961 267.202 100.352 236.109 113.802C230.8 116.099 219.731 120.965 215.294 122.203C222.037 115.936 226.37 104.151 226.37 83.3775C226.37 77.2605 225.968 70.6915 225.267 64.0143C241.005 58.9559 253.435 55.8129 266.036 55.8882Z" fill="#E19D2F"/>
<path d="M218.618 82.2282C218.618 116.106 207.135 124.568 192.971 124.568C178.807 124.568 167.324 116.106 167.324 82.2282C167.324 48.3507 178.807 0 192.971 0C207.135 0 218.618 48.3507 218.618 82.2282Z" fill="#E19D2F"/>
</svg>
