<svg width="45" height="44" viewBox="0 0 45 44" fill="none" xmlns="http://www.w3.org/2000/svg">
<path d="M11.0109 14.3818C8.75094 14.3979 7.43683 15.1338 7.11827 15.3233C6.43867 15.7274 5.45703 16.8115 5.45703 16.8115V23.1213C6.00147 22.552 7.31407 20.7193 10.1042 20.7193C13.7676 20.7193 18.6166 24.1731 22.2657 26.8289V19.5942C17.2417 15.3233 13.5721 14.3637 11.0109 14.3818ZM10.1042 21.8889C7.24846 21.8173 6.3161 23.607 5.45703 24.3996V32.0769C5.45703 32.0769 7.98255 29.5523 9.73382 29.5523C11.4851 29.5523 17.8309 32.6882 22.2658 36.2361L22.2657 28.1048C18.566 25.878 14.6933 22.0038 10.1042 21.8889ZM33.5206 14.3818C35.7805 14.3979 37.0947 15.1338 37.4132 15.3233C38.0928 15.7274 39.0744 16.8115 39.0744 16.8115V23.1213C38.53 22.552 37.2174 20.7193 34.4273 20.7193C30.7639 20.7193 25.9149 24.1731 22.2657 26.8289V19.5942C27.2897 15.3233 30.9594 14.3637 33.5206 14.3818ZM34.4273 21.8889C37.283 21.8174 38.2154 23.607 39.0744 24.3996V32.0769C39.0744 32.0769 36.5489 29.5523 34.7977 29.5523C33.0464 29.5523 26.7007 32.6882 22.2658 36.2361V33.5278L22.2657 28.1048C25.9654 25.878 29.8382 22.0038 34.4273 21.8889Z" fill="#239A6E"/>
<path d="M0.191802 28.8635C-0.768669 25.279 1.89912 17.8725 7.72238 15.0183C7.72238 15.0183 5.9698 17.5151 6.86816 20.8678L10.1035 32.9747C11.5525 38.3825 4.40368 44 4.40368 44L0.191802 28.8635ZM44.3398 28.8635C45.3003 25.279 42.6325 17.8725 36.8092 15.0183C36.8092 15.0183 38.5618 17.5151 37.6635 20.8678L34.4281 32.9747C32.9791 38.3825 40.1279 44 40.1279 44L44.3398 28.8635Z" fill="#1D6C4F"/>
<path d="M13.8354 6.44864C12.662 6.45567 11.7983 6.70221 11.555 7.26472C10.9061 8.76473 13.701 11.5791 17.2887 13.131C17.9012 13.396 19.2136 13.9575 19.7256 14.1003C18.9475 13.3773 18.4476 12.0174 18.4476 9.62048C18.4476 8.91468 18.494 8.15672 18.5749 7.38627C16.7589 6.80261 15.2894 6.43996 13.8354 6.44864ZM30.6965 6.44864C31.8699 6.45567 32.7336 6.70221 32.977 7.26472C33.6258 8.76473 30.831 11.5791 27.2433 13.131C26.6308 13.396 25.3536 13.9575 24.8416 14.1003C25.6197 13.3773 26.1196 12.0174 26.1196 9.62048C26.1196 8.91468 26.0732 8.15672 25.9923 7.38627C27.8083 6.80261 29.2425 6.43996 30.6965 6.44864Z" fill="#E19D2F"/>
<path d="M25.2251 9.48787C25.2251 13.3968 23.9002 14.3733 22.2659 14.3733C20.6315 14.3733 19.3066 13.3968 19.3066 9.48787C19.3066 5.57893 20.6315 0 22.2659 0C23.9002 0 25.2251 5.57893 25.2251 9.48787Z" fill="#E19D2F"/>
</svg>
